<?xml version="1.0" encoding="utf-8"?>
<!-- Generator: Adobe Illustrator 18.1.0, SVG Export Plug-In . SVG Version: 6.00 Build 0)  -->
<svg version="1.1" id="Layer_1" xmlns="http://www.w3.org/2000/svg" xmlns:xlink="http://www.w3.org/1999/xlink" x="0px" y="0px"
	 viewBox="0 0 226 50" enable-background="new 0 0 226 50" xml:space="preserve">
<text transform="matrix(1 0 0 1 47.4289 36.1118)"><tspan x="0" y="0" fill="#A21F1F" font-family="'AvenirNext-UltraLight'" font-size="34">chris</tspan><tspan x="68.236" y="0" fill="#3FA9F5" font-family="'AvenirNext-UltraLight'" font-size="34">hurst{y}</tspan></text>
<g id="XMLID_1_">
	<g>
		<polygon fill="#3FA9F5" points="47.694,8.474 45.697,34.842 38.638,39.12 38.961,30.921 32.259,34.682 30.953,35.414 
			30.934,26.247 39.315,21.961 39.701,12.125 		"/>
		<polygon fill="#3FA9F5" points="47.694,8.474 39.701,12.125 23.593,3.783 31.451,0.833 		"/>
		<polygon fill="#2080BA" points="39.701,12.125 39.315,21.961 30.914,17.067 30.911,16.142 23.887,12.095 23.593,3.783 		"/>
		<polygon fill="#2080BA" points="39.315,21.961 30.934,26.247 30.914,17.067 		"/>
		<polygon fill="#2080BA" points="38.961,30.921 38.638,39.12 32.259,34.682 		"/>
		<polygon fill="#701010" points="30.953,35.414 30.973,43.767 22.615,48.833 22.189,40.331 		"/>
		<polygon fill="#701010" points="30.934,26.247 30.953,35.414 23.422,30.088 		"/>
		<polygon fill="#701010" points="30.953,35.414 22.189,40.331 12.014,32.317 11.738,32.086 11.463,31.824 11.189,31.535 
			10.92,31.22 10.656,30.879 10.398,30.52 10.15,30.14 9.913,29.746 9.689,29.337 9.478,28.92 9.282,28.492 9.104,28.062 
			8.942,27.63 8.801,27.199 8.679,26.773 8.578,26.352 8.5,25.942 8.442,25.546 8.409,25.167 8.398,24.805 8.413,24.465 
			8.45,24.149 8.51,23.86 8.595,23.6 8.702,23.371 8.832,23.175 8.983,23.013 9.154,22.889 9.346,22.801 9.556,22.753 9.782,22.743 
			10.023,22.773 10.278,22.845 10.544,22.954 10.818,23.104 11.1,23.29 21.721,30.96 23.422,30.088 		"/>
		<polygon fill="#701010" points="30.914,17.067 30.934,26.247 23.422,30.088 21.721,30.96 21.2,20.579 30.911,16.142 		"/>
		<polygon fill="#A21F1F" points="30.911,16.142 21.2,20.579 10.097,13.369 9.22,12.856 8.376,12.471 7.569,12.214 6.808,12.087 
			6.096,12.086 5.442,12.209 14.683,8.669 15.387,8.522 16.144,8.493 16.947,8.586 17.789,8.802 18.667,9.141 19.568,9.607 
			23.887,12.095 		"/>
		<polygon fill="#A21F1F" points="22.189,40.331 22.615,48.833 12.848,40.566 12.058,39.855 11.27,39.069 10.494,38.213 
			9.733,37.291 8.989,36.311 8.269,35.279 7.575,34.2 6.91,33.083 6.279,31.931 5.687,30.753 5.132,29.554 4.621,28.343 
			4.158,27.122 3.743,25.901 3.38,24.687 3.073,23.486 2.821,22.306 2.629,21.154 2.5,20.036 2.433,18.962 2.432,17.937 
			2.496,16.971 2.629,16.068 2.827,15.239 3.097,14.493 3.433,13.832 3.839,13.268 4.309,12.805 4.844,12.449 5.442,12.209 
			6.096,12.086 6.808,12.087 7.569,12.214 8.376,12.471 9.22,12.856 10.097,13.369 21.2,20.579 21.721,30.96 11.1,23.29 
			10.818,23.104 10.544,22.954 10.278,22.845 10.023,22.773 9.782,22.743 9.556,22.753 9.346,22.801 9.154,22.889 8.983,23.013 
			8.832,23.175 8.702,23.371 8.595,23.6 8.51,23.86 8.45,24.149 8.413,24.465 8.398,24.805 8.409,25.167 8.442,25.546 8.5,25.942 
			8.578,26.352 8.679,26.773 8.801,27.199 8.942,27.63 9.104,28.062 9.282,28.492 9.478,28.92 9.689,29.337 9.913,29.746 
			10.15,30.14 10.398,30.52 10.656,30.879 10.92,31.22 11.189,31.535 11.463,31.824 11.738,32.086 12.014,32.317 		"/>
	</g>
	<g>
		
			<line fill="none" stroke="#BCBCBC" stroke-width="0.35" stroke-miterlimit="10" x1="22.615" y1="48.833" x2="30.973" y2="43.767"/>
		<line fill="none" stroke="#BCBCBC" stroke-width="0.35" stroke-miterlimit="10" x1="47.694" y1="8.474" x2="31.451" y2="0.833"/>
		<line fill="none" stroke="#BCBCBC" stroke-width="0.35" stroke-miterlimit="10" x1="21.2" y1="20.579" x2="30.911" y2="16.142"/>
		<line fill="none" stroke="#BCBCBC" stroke-width="0.35" stroke-miterlimit="10" x1="45.697" y1="34.842" x2="47.694" y2="8.474"/>
		
			<line fill="none" stroke="#BCBCBC" stroke-width="0.35" stroke-miterlimit="10" x1="22.615" y1="48.833" x2="22.189" y2="40.331"/>
		
			<line fill="none" stroke="#BCBCBC" stroke-width="0.35" stroke-miterlimit="10" x1="12.848" y1="40.566" x2="12.058" y2="39.855"/>
		<line fill="none" stroke="#BCBCBC" stroke-width="0.35" stroke-miterlimit="10" x1="12.058" y1="39.855" x2="11.27" y2="39.069"/>
		<line fill="none" stroke="#BCBCBC" stroke-width="0.35" stroke-miterlimit="10" x1="11.27" y1="39.069" x2="10.494" y2="38.213"/>
		<line fill="none" stroke="#BCBCBC" stroke-width="0.35" stroke-miterlimit="10" x1="10.494" y1="38.213" x2="9.733" y2="37.291"/>
		<line fill="none" stroke="#BCBCBC" stroke-width="0.35" stroke-miterlimit="10" x1="9.733" y1="37.291" x2="8.989" y2="36.311"/>
		<line fill="none" stroke="#BCBCBC" stroke-width="0.35" stroke-miterlimit="10" x1="8.989" y1="36.311" x2="8.269" y2="35.279"/>
		<line fill="none" stroke="#BCBCBC" stroke-width="0.35" stroke-miterlimit="10" x1="8.269" y1="35.279" x2="7.575" y2="34.2"/>
		<line fill="none" stroke="#BCBCBC" stroke-width="0.35" stroke-miterlimit="10" x1="7.575" y1="34.2" x2="6.91" y2="33.083"/>
		<line fill="none" stroke="#BCBCBC" stroke-width="0.35" stroke-miterlimit="10" x1="6.91" y1="33.083" x2="6.279" y2="31.931"/>
		<line fill="none" stroke="#BCBCBC" stroke-width="0.35" stroke-miterlimit="10" x1="6.279" y1="31.931" x2="5.687" y2="30.753"/>
		<line fill="none" stroke="#BCBCBC" stroke-width="0.35" stroke-miterlimit="10" x1="5.687" y1="30.753" x2="5.132" y2="29.554"/>
		<line fill="none" stroke="#BCBCBC" stroke-width="0.35" stroke-miterlimit="10" x1="5.132" y1="29.554" x2="4.621" y2="28.343"/>
		<line fill="none" stroke="#BCBCBC" stroke-width="0.35" stroke-miterlimit="10" x1="4.621" y1="28.343" x2="4.158" y2="27.122"/>
		<line fill="none" stroke="#BCBCBC" stroke-width="0.35" stroke-miterlimit="10" x1="4.158" y1="27.122" x2="3.743" y2="25.901"/>
		<line fill="none" stroke="#BCBCBC" stroke-width="0.35" stroke-miterlimit="10" x1="3.743" y1="25.901" x2="3.38" y2="24.687"/>
		<line fill="none" stroke="#BCBCBC" stroke-width="0.35" stroke-miterlimit="10" x1="3.38" y1="24.687" x2="3.073" y2="23.486"/>
		<line fill="none" stroke="#BCBCBC" stroke-width="0.35" stroke-miterlimit="10" x1="3.073" y1="23.486" x2="2.821" y2="22.306"/>
		<line fill="none" stroke="#BCBCBC" stroke-width="0.35" stroke-miterlimit="10" x1="2.821" y1="22.306" x2="2.629" y2="21.154"/>
		<line fill="none" stroke="#BCBCBC" stroke-width="0.35" stroke-miterlimit="10" x1="2.629" y1="21.154" x2="2.5" y2="20.036"/>
		<line fill="none" stroke="#BCBCBC" stroke-width="0.35" stroke-miterlimit="10" x1="2.5" y1="20.036" x2="2.433" y2="18.962"/>
		<line fill="none" stroke="#BCBCBC" stroke-width="0.35" stroke-miterlimit="10" x1="2.433" y1="18.962" x2="2.432" y2="17.937"/>
		<line fill="none" stroke="#BCBCBC" stroke-width="0.35" stroke-miterlimit="10" x1="2.432" y1="17.937" x2="2.496" y2="16.971"/>
		<line fill="none" stroke="#BCBCBC" stroke-width="0.35" stroke-miterlimit="10" x1="2.496" y1="16.971" x2="2.629" y2="16.068"/>
		<line fill="none" stroke="#BCBCBC" stroke-width="0.35" stroke-miterlimit="10" x1="2.629" y1="16.068" x2="2.827" y2="15.239"/>
		<line fill="none" stroke="#BCBCBC" stroke-width="0.35" stroke-miterlimit="10" x1="2.827" y1="15.239" x2="3.097" y2="14.493"/>
		<line fill="none" stroke="#BCBCBC" stroke-width="0.35" stroke-miterlimit="10" x1="3.097" y1="14.493" x2="3.433" y2="13.832"/>
		<line fill="none" stroke="#BCBCBC" stroke-width="0.35" stroke-miterlimit="10" x1="3.433" y1="13.832" x2="3.839" y2="13.268"/>
		<line fill="none" stroke="#BCBCBC" stroke-width="0.35" stroke-miterlimit="10" x1="3.839" y1="13.268" x2="4.309" y2="12.805"/>
		<line fill="none" stroke="#BCBCBC" stroke-width="0.35" stroke-miterlimit="10" x1="4.309" y1="12.805" x2="4.844" y2="12.449"/>
		<line fill="none" stroke="#BCBCBC" stroke-width="0.35" stroke-miterlimit="10" x1="4.844" y1="12.449" x2="5.442" y2="12.209"/>
		<line fill="none" stroke="#BCBCBC" stroke-width="0.35" stroke-miterlimit="10" x1="5.442" y1="12.209" x2="6.096" y2="12.086"/>
		<line fill="none" stroke="#BCBCBC" stroke-width="0.35" stroke-miterlimit="10" x1="6.096" y1="12.086" x2="6.808" y2="12.087"/>
		<line fill="none" stroke="#BCBCBC" stroke-width="0.35" stroke-miterlimit="10" x1="6.808" y1="12.087" x2="7.569" y2="12.214"/>
		<line fill="none" stroke="#BCBCBC" stroke-width="0.35" stroke-miterlimit="10" x1="7.569" y1="12.214" x2="8.376" y2="12.471"/>
		<line fill="none" stroke="#BCBCBC" stroke-width="0.35" stroke-miterlimit="10" x1="8.376" y1="12.471" x2="9.22" y2="12.856"/>
		<line fill="none" stroke="#BCBCBC" stroke-width="0.35" stroke-miterlimit="10" x1="9.22" y1="12.856" x2="10.097" y2="13.369"/>
		
			<line fill="none" stroke="#BCBCBC" stroke-width="0.35" stroke-miterlimit="10" x1="12.848" y1="40.566" x2="22.615" y2="48.833"/>
		<line fill="none" stroke="#BCBCBC" stroke-width="0.35" stroke-miterlimit="10" x1="10.097" y1="13.369" x2="21.2" y2="20.579"/>
		
			<line fill="none" stroke="#BCBCBC" stroke-width="0.35" stroke-miterlimit="10" x1="12.014" y1="32.317" x2="11.738" y2="32.086"/>
		
			<line fill="none" stroke="#BCBCBC" stroke-width="0.35" stroke-miterlimit="10" x1="11.738" y1="32.086" x2="11.463" y2="31.824"/>
		
			<line fill="none" stroke="#BCBCBC" stroke-width="0.35" stroke-miterlimit="10" x1="11.463" y1="31.824" x2="11.189" y2="31.535"/>
		<line fill="none" stroke="#BCBCBC" stroke-width="0.35" stroke-miterlimit="10" x1="11.189" y1="31.535" x2="10.92" y2="31.22"/>
		<line fill="none" stroke="#BCBCBC" stroke-width="0.35" stroke-miterlimit="10" x1="10.92" y1="31.22" x2="10.656" y2="30.879"/>
		<line fill="none" stroke="#BCBCBC" stroke-width="0.35" stroke-miterlimit="10" x1="10.656" y1="30.879" x2="10.398" y2="30.52"/>
		<line fill="none" stroke="#BCBCBC" stroke-width="0.35" stroke-miterlimit="10" x1="10.398" y1="30.52" x2="10.15" y2="30.14"/>
		<line fill="none" stroke="#BCBCBC" stroke-width="0.35" stroke-miterlimit="10" x1="10.15" y1="30.14" x2="9.913" y2="29.746"/>
		<line fill="none" stroke="#BCBCBC" stroke-width="0.35" stroke-miterlimit="10" x1="9.913" y1="29.746" x2="9.689" y2="29.337"/>
		<line fill="none" stroke="#BCBCBC" stroke-width="0.35" stroke-miterlimit="10" x1="9.689" y1="29.337" x2="9.478" y2="28.92"/>
		<line fill="none" stroke="#BCBCBC" stroke-width="0.35" stroke-miterlimit="10" x1="9.478" y1="28.92" x2="9.282" y2="28.492"/>
		<line fill="none" stroke="#BCBCBC" stroke-width="0.35" stroke-miterlimit="10" x1="9.282" y1="28.492" x2="9.104" y2="28.062"/>
		<line fill="none" stroke="#BCBCBC" stroke-width="0.35" stroke-miterlimit="10" x1="9.104" y1="28.062" x2="8.942" y2="27.63"/>
		<line fill="none" stroke="#BCBCBC" stroke-width="0.35" stroke-miterlimit="10" x1="8.942" y1="27.63" x2="8.801" y2="27.199"/>
		<line fill="none" stroke="#BCBCBC" stroke-width="0.35" stroke-miterlimit="10" x1="8.801" y1="27.199" x2="8.679" y2="26.773"/>
		<line fill="none" stroke="#BCBCBC" stroke-width="0.35" stroke-miterlimit="10" x1="8.679" y1="26.773" x2="8.578" y2="26.352"/>
		<line fill="none" stroke="#BCBCBC" stroke-width="0.35" stroke-miterlimit="10" x1="8.578" y1="26.352" x2="8.5" y2="25.942"/>
		<line fill="none" stroke="#BCBCBC" stroke-width="0.35" stroke-miterlimit="10" x1="8.5" y1="25.942" x2="8.442" y2="25.546"/>
		<line fill="none" stroke="#BCBCBC" stroke-width="0.35" stroke-miterlimit="10" x1="8.442" y1="25.546" x2="8.409" y2="25.167"/>
		<line fill="none" stroke="#BCBCBC" stroke-width="0.35" stroke-miterlimit="10" x1="8.409" y1="25.167" x2="8.398" y2="24.805"/>
		<line fill="none" stroke="#BCBCBC" stroke-width="0.35" stroke-miterlimit="10" x1="8.398" y1="24.805" x2="8.413" y2="24.465"/>
		<line fill="none" stroke="#BCBCBC" stroke-width="0.35" stroke-miterlimit="10" x1="8.413" y1="24.465" x2="8.45" y2="24.149"/>
		<line fill="none" stroke="#BCBCBC" stroke-width="0.35" stroke-miterlimit="10" x1="8.45" y1="24.149" x2="8.51" y2="23.86"/>
		<line fill="none" stroke="#BCBCBC" stroke-width="0.35" stroke-miterlimit="10" x1="8.51" y1="23.86" x2="8.595" y2="23.6"/>
		<line fill="none" stroke="#BCBCBC" stroke-width="0.35" stroke-miterlimit="10" x1="8.595" y1="23.6" x2="8.702" y2="23.371"/>
		<line fill="none" stroke="#BCBCBC" stroke-width="0.35" stroke-miterlimit="10" x1="8.702" y1="23.371" x2="8.832" y2="23.175"/>
		<line fill="none" stroke="#BCBCBC" stroke-width="0.35" stroke-miterlimit="10" x1="8.832" y1="23.175" x2="8.983" y2="23.013"/>
		<line fill="none" stroke="#BCBCBC" stroke-width="0.35" stroke-miterlimit="10" x1="8.983" y1="23.013" x2="9.154" y2="22.889"/>
		<line fill="none" stroke="#BCBCBC" stroke-width="0.35" stroke-miterlimit="10" x1="9.154" y1="22.889" x2="9.346" y2="22.801"/>
		<line fill="none" stroke="#BCBCBC" stroke-width="0.35" stroke-miterlimit="10" x1="9.346" y1="22.801" x2="9.556" y2="22.753"/>
		<line fill="none" stroke="#BCBCBC" stroke-width="0.35" stroke-miterlimit="10" x1="9.556" y1="22.753" x2="9.782" y2="22.743"/>
		<line fill="none" stroke="#BCBCBC" stroke-width="0.35" stroke-miterlimit="10" x1="9.782" y1="22.743" x2="10.023" y2="22.773"/>
		
			<line fill="none" stroke="#BCBCBC" stroke-width="0.35" stroke-miterlimit="10" x1="10.023" y1="22.773" x2="10.278" y2="22.845"/>
		
			<line fill="none" stroke="#BCBCBC" stroke-width="0.35" stroke-miterlimit="10" x1="10.278" y1="22.845" x2="10.544" y2="22.954"/>
		
			<line fill="none" stroke="#BCBCBC" stroke-width="0.35" stroke-miterlimit="10" x1="10.544" y1="22.954" x2="10.818" y2="23.104"/>
		<line fill="none" stroke="#BCBCBC" stroke-width="0.35" stroke-miterlimit="10" x1="10.818" y1="23.104" x2="11.1" y2="23.29"/>
		<line fill="none" stroke="#BCBCBC" stroke-width="0.35" stroke-miterlimit="10" x1="21.721" y1="30.96" x2="21.2" y2="20.579"/>
		<line fill="none" stroke="#BCBCBC" stroke-width="0.35" stroke-miterlimit="10" x1="21.721" y1="30.96" x2="11.1" y2="23.29"/>
		
			<line fill="none" stroke="#BCBCBC" stroke-width="0.35" stroke-miterlimit="10" x1="12.014" y1="32.317" x2="22.189" y2="40.331"/>
		
			<line fill="none" stroke="#BCBCBC" stroke-width="0.35" stroke-miterlimit="10" x1="30.953" y1="35.414" x2="30.973" y2="43.767"/>
		<line fill="none" stroke="#BCBCBC" stroke-width="0.35" stroke-miterlimit="10" x1="39.701" y1="12.125" x2="47.694" y2="8.474"/>
		
			<line fill="none" stroke="#BCBCBC" stroke-width="0.35" stroke-miterlimit="10" x1="39.701" y1="12.125" x2="39.315" y2="21.961"/>
		
			<line fill="none" stroke="#BCBCBC" stroke-width="0.35" stroke-miterlimit="10" x1="39.315" y1="21.961" x2="30.934" y2="26.247"/>
		<line fill="none" stroke="#BCBCBC" stroke-width="0.35" stroke-miterlimit="10" x1="38.638" y1="39.12" x2="45.697" y2="34.842"/>
		<line fill="none" stroke="#BCBCBC" stroke-width="0.35" stroke-miterlimit="10" x1="38.961" y1="30.921" x2="38.638" y2="39.12"/>
		
			<line fill="none" stroke="#BCBCBC" stroke-width="0.35" stroke-miterlimit="10" x1="30.953" y1="35.414" x2="30.934" y2="26.247"/>
		
			<line fill="none" stroke="#BCBCBC" stroke-width="0.35" stroke-miterlimit="10" x1="22.189" y1="40.331" x2="30.953" y2="35.414"/>
		<line fill="none" stroke="#BCBCBC" stroke-width="0.35" stroke-miterlimit="10" x1="14.683" y1="8.669" x2="15.387" y2="8.522"/>
		<line fill="none" stroke="#BCBCBC" stroke-width="0.35" stroke-miterlimit="10" x1="15.387" y1="8.522" x2="16.144" y2="8.493"/>
		<line fill="none" stroke="#BCBCBC" stroke-width="0.35" stroke-miterlimit="10" x1="16.144" y1="8.493" x2="16.947" y2="8.586"/>
		<line fill="none" stroke="#BCBCBC" stroke-width="0.35" stroke-miterlimit="10" x1="16.947" y1="8.586" x2="17.789" y2="8.802"/>
		<line fill="none" stroke="#BCBCBC" stroke-width="0.35" stroke-miterlimit="10" x1="17.789" y1="8.802" x2="18.667" y2="9.141"/>
		<line fill="none" stroke="#BCBCBC" stroke-width="0.35" stroke-miterlimit="10" x1="18.667" y1="9.141" x2="19.568" y2="9.607"/>
		<line fill="none" stroke="#BCBCBC" stroke-width="0.35" stroke-miterlimit="10" x1="5.442" y1="12.209" x2="14.683" y2="8.669"/>
		
			<line fill="none" stroke="#BCBCBC" stroke-width="0.35" stroke-miterlimit="10" x1="39.315" y1="21.961" x2="30.914" y2="17.067"/>
		<line fill="none" stroke="#BCBCBC" stroke-width="0.35" stroke-miterlimit="10" x1="39.701" y1="12.125" x2="23.593" y2="3.783"/>
		<line fill="none" stroke="#BCBCBC" stroke-width="0.35" stroke-miterlimit="10" x1="38.638" y1="39.12" x2="32.259" y2="34.682"/>
		
			<line fill="none" stroke="#BCBCBC" stroke-width="0.35" stroke-miterlimit="10" x1="30.953" y1="35.414" x2="23.422" y2="30.088"/>
		<line fill="none" stroke="#BCBCBC" stroke-width="0.35" stroke-miterlimit="10" x1="23.593" y1="3.783" x2="23.887" y2="12.095"/>
		<line fill="none" stroke="#BCBCBC" stroke-width="0.35" stroke-miterlimit="10" x1="23.593" y1="3.783" x2="31.451" y2="0.833"/>
		<line fill="none" stroke="#BCBCBC" stroke-width="0.35" stroke-miterlimit="10" x1="21.721" y1="30.96" x2="23.422" y2="30.088"/>
		
			<line fill="none" stroke="#BCBCBC" stroke-width="0.35" stroke-miterlimit="10" x1="23.422" y1="30.088" x2="30.934" y2="26.247"/>
		
			<line fill="none" stroke="#BCBCBC" stroke-width="0.35" stroke-miterlimit="10" x1="30.934" y1="26.247" x2="30.914" y2="17.067"/>
		
			<line fill="none" stroke="#BCBCBC" stroke-width="0.35" stroke-miterlimit="10" x1="30.914" y1="17.067" x2="30.911" y2="16.142"/>
		
			<line fill="none" stroke="#BCBCBC" stroke-width="0.35" stroke-miterlimit="10" x1="30.953" y1="35.414" x2="32.259" y2="34.682"/>
		
			<line fill="none" stroke="#BCBCBC" stroke-width="0.35" stroke-miterlimit="10" x1="32.259" y1="34.682" x2="38.961" y2="30.921"/>
		
			<line fill="none" stroke="#BCBCBC" stroke-width="0.35" stroke-miterlimit="10" x1="30.911" y1="16.142" x2="23.887" y2="12.095"/>
		<line fill="none" stroke="#BCBCBC" stroke-width="0.35" stroke-miterlimit="10" x1="23.887" y1="12.095" x2="19.568" y2="9.607"/>
	</g>
</g>
</svg>
